HIERARCHY
ROOT Hips
{
	OFFSET -3.958830 18.904000 13.208200
	CHANNELS 6 Xposition Yposition Zposition Zrotation Yrotation Xrotation 
	JOINT LHipJoint
	{
		OFFSET 0.000000 0.000000 0.000000
		CHANNELS 3 Zrotation Yrotation Xrotation
		JOINT LeftUpLeg
		{
			OFFSET 1.800000 -1.400000 0.085000
			CHANNELS 3 Zrotation Yrotation Xrotation
			JOINT LeftLeg
			{
				OFFSET 2.215000 -6.000000 0.000000
				CHANNELS 3 Zrotation Yrotation Xrotation
				JOINT LeftFoot
				{
					OFFSET 2.500000 -6.900000 0.000000
					CHANNELS 3 Zrotation Yrotation Xrotation
					JOINT LeftToeBase
					{
						OFFSET 0.200000 -0.500000 1.950000
						CHANNELS 3 Zrotation Yrotation Xrotation
						End Site
						{
							OFFSET 0.000000 0.000000 0.000000
						}
					}
				}
			}
		}
	}
	JOINT RHipJoint
	{
		OFFSET 0.000000 0.000000 0.000000
		CHANNELS 3 Zrotation Yrotation Xrotation
		JOINT RightUpLeg
		{
			OFFSET -1.800000 -1.400000 0.085000
			CHANNELS 3 Zrotation Yrotation Xrotation
			JOINT RightLeg
			{
				OFFSET -2.215000 -6.000000 0.000000
				CHANNELS 3 Zrotation Yrotation Xrotation
				JOINT RightFoot
				{
					OFFSET -2.500000 -6.900000 0.000000
					CHANNELS 3 Zrotation Yrotation Xrotation
					JOINT RightToeBase
					{
						OFFSET -0.200000 -0.500000 1.950000
						CHANNELS 3 Zrotation Yrotation Xrotation
						End Site
						{
							OFFSET 0.000000 0.000000 0.000000
						}
					}
				}
			}
		}
	}
	JOINT LowerBack
	{
		OFFSET 0.000000 0.000000 0.000000
		CHANNELS 3 Zrotation Yrotation Xrotation
		JOINT Spine
		{
			OFFSET -0.087000 1.940000 -0.288900
			CHANNELS 3 Zrotation Yrotation Xrotation
			JOINT Spine1
			{
				OFFSET 0.000000 1.950000 0.060000
				CHANNELS 3 Zrotation Yrotation Xrotation
				JOINT Neck
				{
					OFFSET 0.000000 0.000000 0.000000
					CHANNELS 3 Zrotation Yrotation Xrotation
					JOINT Neck1
					{
						OFFSET 0.000000 1.600000 0.340000
						CHANNELS 3 Zrotation Yrotation Xrotation
						JOINT Head
						{
							OFFSET 0.000000 1.667000 -0.240000
							CHANNELS 3 Zrotation Yrotation Xrotation
							End Site
							{
								OFFSET 0.000000 0.000000 0.000000
							}
						}
					}
				}
				JOINT LeftShoulder
				{
					OFFSET 0.000000 0.000000 0.000000
					CHANNELS 3 Zrotation Yrotation Xrotation
					JOINT LeftArm
					{
						OFFSET 2.700000 1.550000 -0.730000
						CHANNELS 3 Zrotation Yrotation Xrotation
						JOINT LeftForeArm
						{
							OFFSET 5.450000 0.000000 0.000000
							CHANNELS 3 Zrotation Yrotation Xrotation
							JOINT LeftHand
							{
								OFFSET 3.450000 0.000000 0.000000
								CHANNELS 3 Zrotation Yrotation Xrotation
								JOINT LeftHandIndex1
								{
									OFFSET 0.750000 0.000000 0.000000
									CHANNELS 3 Zrotation Yrotation Xrotation
									End Site
									{
										OFFSET 0.000000 0.000000 0.000000
									}
								}
							}
						}
					}
				}
				JOINT RightShoulder
				{
					OFFSET 0.000000 0.000000 0.000000
					CHANNELS 3 Zrotation Yrotation Xrotation
					JOINT RightArm
					{
						OFFSET -2.700000 1.550000 -0.730000
						CHANNELS 3 Zrotation Yrotation Xrotation
						JOINT RightForeArm
						{
							OFFSET -5.450000 0.000000 0.000000
							CHANNELS 3 Zrotation Yrotation Xrotation
							JOINT RightHand
							{
								OFFSET -3.450000 0.000000 0.000000
								CHANNELS 3 Zrotation Yrotation Xrotation
								JOINT RightHandIndex1
								{
									OFFSET -0.750000 0.000000 0.000000
									CHANNELS 3 Zrotation Yrotation Xrotation
									End Site
									{
										OFFSET 0.000000 0.000000 0.000000
									}
								}
							}
						}
					}
				}
			}
		}
	}
}
MOTION
Frames: 14
Frame Time: 0.016667
-1.596610 18.313040 -2.550910 -9.824559 -1.040267 7.756396 -14.516009 13.248732 2.568427 2.846896 -0.988908 -13.669616 -2.298043 4.795109 16.857853 -0.617048 4.180047 3.420337 -0.405840 -0.659080 -0.657460 18.849088 -11.486416 3.168951 5.926444 2.804009 -12.302109 2.089658 -6.361767 30.606522 -0.543978 -5.000815 2.647339 -0.366100 1.109630 0.516310 -5.316012 -0.212528 -7.142764 24.548764 1.364009 6.711685 -8.317034 2.803778 0.065921 2.057986 -7.591050 -9.736349 -16.608624 6.276624 40.056707 1.670330 -2.392480 -2.469790 -31.941535 -9.500970 2.959455 -57.065490 -2.212150 -2.296478 -1.589574 -8.899134 -1.593296 -4.228433 2.510410 0.636680 0.412130 -0.080000 0.327830 26.348586 16.172238 7.629665 56.479249 3.059986 -1.370417 5.557069 -4.642651 1.042700 2.414268 -0.852845 -0.428970 0.548590 0.594430 0.234960 
-1.589680 18.274020 -2.549950 -8.842834 -1.537977 9.187060 -14.602143 13.311830 2.703649 2.228884 -1.193098 -14.067988 -3.613107 4.958367 15.784980 -0.593697 4.180509 3.413689 -0.459490 -0.735720 -0.681410 18.757718 -11.255854 3.157474 4.228962 3.281175 -15.112964 6.012601 -7.570284 29.185520 -0.478992 -4.866618 2.677825 -0.420110 1.110740 0.528260 -5.061173 -0.721602 -7.246719 22.888629 0.689238 7.621506 -7.741624 2.120159 -3.088837 1.855840 -7.684227 -8.438817 -16.671474 6.598858 38.552779 1.870880 -1.836530 -2.448400 -30.853310 -4.427194 1.155243 -57.988367 -1.018640 -3.494927 -3.102616 -11.389403 -1.721351 -4.256973 2.490837 0.644900 0.413300 -0.090150 0.298560 25.472819 10.891849 6.115203 57.995249 0.168046 -3.292269 5.062374 -2.650420 0.865525 2.417354 -0.794856 -0.431190 0.517860 0.629770 0.223840 
-1.566060 18.275670 -2.572100 -8.821992 -1.490291 10.342148 -14.681989 13.342641 2.758775 2.592086 -1.308368 -14.635677 -4.892161 5.053840 14.275933 -0.597758 4.160518 3.432494 -0.456340 -0.747770 -0.669910 18.696550 -10.914136 3.271253 3.516502 4.806242 -19.419795 7.691542 -9.008740 34.028775 -0.600228 -5.449459 2.452490 -0.433190 1.095260 0.529710 -4.862936 -1.279598 -7.382381 23.322495 -0.717891 9.893330 -7.534337 1.213366 -5.855652 1.809335 -8.609444 -7.149329 -18.352448 6.552098 35.898615 1.388960 -1.792250 -4.763050 -29.729455 0.764448 -0.962089 -58.658153 -0.924319 -4.553052 -6.337253 -15.399223 -1.586409 -4.229908 2.477691 0.681490 0.385630 -0.073490 0.302890 24.264142 5.866708 4.695034 57.779719 -1.897523 -5.208577 5.396670 0.230990 0.498076 2.401853 -0.738742 -0.439590 0.522790 0.623320 0.215960 
-1.526430 18.301610 -2.658090 -9.201998 -0.873527 11.204934 -14.749556 13.165607 2.694406 2.972609 -1.487517 -15.653793 -5.767428 5.058031 13.138485 -0.663827 4.160558 3.426451 -0.479790 -0.785340 -0.678160 18.707273 -10.420720 3.610962 2.378613 7.461931 -26.188935 7.818814 -11.631008 45.375631 -0.953630 -7.232529 1.819376 -0.433510 1.109210 0.535010 -4.795376 -1.653878 -7.559389 25.159060 -2.864093 12.615064 -8.430833 0.022304 -5.896709 2.113063 -9.310865 -7.049876 -19.313961 6.679259 32.866403 0.947710 -1.599930 -7.152690 -27.938294 1.133813 -1.316636 -59.120329 -2.318401 -5.421212 -8.111382 -19.784124 -1.441251 -4.240407 2.493549 0.704490 0.389800 -0.089140 0.273000 21.965707 5.252938 4.534554 58.684258 -1.780872 -6.879353 5.990876 4.140393 0.185947 2.339639 -0.710093 -0.467650 0.545900 0.670860 0.196870 
-1.509000 18.344570 -2.784280 -9.586990 -2.275725 12.717194 -14.833594 12.649090 2.466836 2.763783 -1.789804 -17.084357 -6.126833 4.975535 12.546286 -0.804740 4.135117 3.438323 -0.466730 -0.787960 -0.657910 18.805708 -9.579208 4.475271 1.080300 12.253426 -36.607615 4.372189 -14.759866 65.708434 -1.745090 -10.723295 0.734878 -0.377200 1.146330 0.531020 -4.808606 -1.788618 -7.924645 25.558417 -4.126211 15.236229 -8.132887 -0.289890 -4.762164 1.947536 -9.923563 -6.876505 -19.763252 6.604177 29.728136 0.236100 -1.692310 -9.621720 -27.193590 0.062238 -1.343914 -58.705988 -4.224231 -6.349475 -8.243707 -25.550731 -1.447698 -4.263066 2.494433 0.728500 0.413820 -0.122260 0.257050 21.660435 6.436969 4.391583 56.935467 0.281487 -6.926800 6.409535 6.547226 0.018382 2.252918 -0.716239 -0.529240 0.611950 0.711600 0.166340 
-1.513810 18.387210 -2.909800 -9.522674 -3.473914 13.879396 -14.966492 12.160512 2.209745 2.036612 -2.271488 -18.939047 -5.880769 5.052930 13.949345 -0.852732 4.055031 3.429999 -0.345910 -0.644430 -0.548660 18.875915 -8.543861 5.516244 -1.251698 17.330171 -47.973957 -3.475181 -18.496797 95.601316 -3.019652 -15.385880 -0.426558 -0.295550 1.058690 0.532200 -4.720242 -2.282165 -8.434934 24.606915 -5.191575 18.832363 -7.444654 -0.682265 -4.556012 1.878850 -10.439940 -6.808898 -20.750857 7.164647 28.446568 -0.259860 -1.374860 -13.583710 -26.913057 -0.241684 -1.567417 -56.654571 -5.250243 -7.566551 -9.839978 -33.469062 -0.722297 -4.159541 2.557417 0.769930 0.354910 -0.051210 0.261860 21.705771 6.845096 4.228272 55.546346 1.402921 -7.880579 6.775935 12.381927 -0.109178 2.183399 -0.740365 -0.500810 0.625690 0.648330 0.145160 
-1.535820 18.401200 -3.029950 -8.573369 -3.143849 14.188547 -15.097889 12.048354 2.187268 0.558616 -2.829456 -20.837622 -4.851361 5.116040 16.616739 -0.894158 4.051883 3.376911 -0.254630 -0.529290 -0.457620 18.823133 -7.985520 5.978825 -2.583000 19.037920 -54.124853 -8.686054 -20.166563 110.690357 -3.577734 -17.145317 -0.789334 -0.237500 0.962140 0.553400 -4.454240 -2.909735 -8.743318 21.933682 -5.920540 22.335602 -5.724850 -1.493160 -4.148653 1.733125 -10.107726 -6.774210 -20.268967 7.596342 28.427790 -1.592400 -0.266050 -17.280030 -26.035778 -0.619902 -1.322234 -54.964634 -6.016690 -8.834578 -11.894670 -43.489087 0.443706 -4.069626 2.645305 0.824300 0.307710 0.029350 0.250340 21.487129 6.817682 3.764230 54.168180 3.021790 -8.424639 6.373627 17.612099 -0.042064 2.117811 -0.753913 -0.470880 0.612350 0.607920 0.111500 
-1.535420 18.429610 -3.165710 -9.276178 -4.159577 14.065652 -15.162857 11.960434 2.165804 1.002473 -3.142399 -22.442526 -4.713454 5.634313 19.856218 -0.867303 4.325681 3.233189 -0.196040 -0.438070 -0.375220 18.806715 -7.613463 6.354987 -3.732059 20.691294 -58.695754 -7.285978 -21.740980 110.869562 -3.684984 -17.401759 -0.848382 -0.199340 0.884850 0.550500 -4.335199 -3.142619 -8.948576 21.589799 -6.398058 26.100799 -4.957187 -1.344264 -2.792839 1.953155 -9.697841 -7.334304 -19.695751 7.968959 29.481441 -2.918800 0.887100 -20.348630 -25.394352 -2.691295 -0.437653 -52.324794 -6.780441 -10.016862 -12.105676 -54.543934 1.095967 -3.982599 2.686779 0.864040 0.264820 0.105250 0.234890 20.643219 8.783025 4.141430 52.301340 4.930417 -9.245621 4.504896 24.409346 -0.052169 2.042871 -0.757978 -0.450750 0.627910 0.569790 0.088980 
-1.517740 18.449060 -3.285710 -9.207024 -2.763166 12.674575 -15.212487 12.071736 2.213342 0.048771 -3.553716 -23.123673 -2.588417 5.673501 24.510798 -0.845032 4.700543 3.070162 -0.147160 -0.383330 -0.315940 18.758305 -7.523799 6.410571 -4.506049 19.913026 -60.377544 -4.903379 -21.979916 105.600781 -3.576184 -16.946990 -0.786384 -0.171690 0.822220 0.544880 -4.181134 -3.434732 -8.989678 21.340466 -8.002582 30.479906 -4.389730 -2.272506 -1.739058 2.055632 -9.539157 -7.733301 -19.665439 7.521622 30.555969 -3.370150 0.721840 -23.627190 -24.638108 -4.287163 0.353305 -48.733871 -7.229943 -10.562267 -12.751910 -66.166913 1.962339 -3.896343 2.738075 0.930630 0.210350 0.164100 0.228140 19.911937 10.148168 4.312558 49.686519 6.575028 -10.537626 2.343273 32.862272 -0.134412 1.941439 -0.767320 -0.453370 0.647250 0.546420 0.063940 
-1.496740 18.423790 -3.390580 -8.304092 0.994619 11.677453 -15.259025 12.104506 2.397856 -1.884856 -4.727664 -23.710383 0.629062 5.181820 30.833366 -0.755914 5.351862 2.830617 -0.124520 -0.358360 -0.250420 18.713591 -7.497320 6.302047 -6.459786 17.057492 -62.090389 1.120477 -23.590622 94.259219 -3.257152 -15.969344 -0.627314 -0.147430 0.783720 0.522120 -4.044864 -3.654377 -8.982254 21.204831 -10.031843 33.219815 -3.868885 -3.802613 -0.639476 2.316205 -8.712093 -7.690285 -17.778243 6.603007 30.541816 -5.275590 1.418740 -24.720670 -22.863234 -4.715011 0.907792 -45.998270 -8.463149 -9.673108 -10.663812 -77.715790 1.134032 -3.870452 2.763237 0.947860 0.203610 0.176600 0.216330 17.823499 9.557196 3.835977 48.726780 7.983103 -11.833081 -0.777066 41.756741 -0.747758 1.839205 -0.812456 -0.477640 0.653970 0.515170 0.026990 
-1.479760 18.378870 -3.480690 -7.323042 3.007871 10.155336 -15.287800 12.164577 2.541431 -3.885975 -5.542532 -22.070403 2.930212 4.595354 35.799691 -0.610971 6.038081 2.588718 -0.100170 -0.307420 -0.255810 18.684853 -7.540268 6.136274 -6.847986 14.909095 -62.175852 4.670958 -21.711912 82.815133 -2.755985 -14.205268 -0.263055 -0.113420 0.781920 0.516660 -3.966850 -3.795793 -8.904370 20.526024 -11.827299 36.427859 -3.171264 -5.489046 0.381111 1.751118 -8.940568 -7.429588 -18.084416 6.439953 29.775024 -5.134140 1.225320 -26.062170 -21.326554 -4.951969 1.191896 -42.503947 -8.865654 -10.600075 31.247331 -88.465056 -36.868776 -3.771657 2.263655 0.933740 0.203750 0.176230 0.226090 17.606670 9.281455 3.249727 45.315852 9.413344 -12.847514 -4.565175 50.274722 -2.099305 1.734124 -0.858575 -0.470890 0.663800 0.505240 0.036390 
-1.470080 18.277510 -3.558910 -5.681810 4.459006 9.331992 -15.354145 12.143456 2.869665 -5.950331 -6.977140 -20.833297 3.642860 4.627160 42.011063 -0.356531 7.116002 2.223589 -0.071830 -0.256570 -0.220720 18.616195 -7.577746 5.846059 -7.316018 12.347403 -61.486927 7.087970 -19.077382 71.187353 -2.187852 -12.134928 0.205714 -0.079500 0.778290 0.530990 -3.785607 -3.954221 -8.891993 18.522020 -12.423629 39.103262 -2.155532 -6.592325 1.488073 1.437161 -8.164309 -7.074317 -16.016560 5.618289 28.053071 -6.334980 1.866780 -26.855860 -19.723455 -3.892458 1.985659 -37.437520 -11.122367 -2.860201 121.097189 -74.174243 -118.806860 -4.318411 2.167409 0.897970 0.227500 0.181040 0.233780 16.879775 7.698091 1.981315 42.354324 10.741779 -13.557779 -9.921098 58.667254 -4.859412 1.632393 -0.911492 -0.459570 0.651690 0.473860 0.037630 
-1.449300 18.124770 -3.603770 -5.353259 5.420061 8.818452 -15.354167 12.087514 3.022507 -6.297530 -7.877699 -19.279769 2.937241 5.377099 47.142053 -0.131903 8.166340 1.867339 -0.031770 -0.187370 -0.206390 18.612501 -7.674457 5.617178 -7.289793 10.856133 -60.563087 10.269458 -17.566602 60.814384 -1.743185 -10.409165 0.642832 -0.022880 0.784410 0.543140 -3.794354 -3.818359 -8.791863 19.026017 -13.561353 40.699236 -2.085887 -7.495982 1.790052 0.906063 -8.100893 -6.351212 -15.086973 4.936640 25.002370 -7.136860 1.974900 -27.498230 -16.715550 -1.951664 1.676962 -33.091437 -12.000708 -2.088832 130.349122 -65.425284 -120.169290 -4.241102 2.507183 0.848990 0.260630 0.164550 0.245180 15.048462 5.380525 0.808015 39.807163 11.807475 -13.614124 -18.251971 65.799258 -10.011487 1.501984 -0.927002 -0.447990 0.638950 0.452730 0.043810 
-1.423280 17.909560 -3.635110 -5.893636 5.096321 8.362422 -15.302251 12.057886 3.029963 -6.287610 -7.850921 -16.880296 2.321049 6.222768 50.611261 0.073029 8.998498 1.608574 -0.086090 -0.210200 -0.272110 18.639757 -7.884378 5.489351 -6.215173 10.539850 -59.504876 13.116233 -15.352037 50.369447 -1.271510 -8.553717 1.178181 -0.014260 0.857030 0.566690 -3.923774 -3.347309 -8.678380 20.518429 -14.345471 41.841247 -3.256912 -7.761543 1.507363 0.732664 -6.968303 -5.872797 -12.237573 4.420250 22.523122 -8.020200 2.981150 -25.381460 -12.323035 0.567118 1.293606 -28.081213 -12.411158 -0.901961 131.902611 -57.955664 -112.645940 -4.320116 2.554497 0.751800 0.357460 0.100430 0.241300 11.044364 1.902825 -0.006860 40.512244 12.276314 -13.741351 -32.955265 72.291265 -20.478280 1.289753 -0.735504 -0.451060 0.616570 0.488370 0.063190 
